<svg xmlns="http://www.w3.org/2000/svg" viewBox="0 0 760 400" width="760" height="400" role="img" aria-label="Time windows: why the order of visits matters" font-family="Inter, system-ui, -apple-system, Segoe UI, sans-serif">
<title>Time windows: why the order of visits matters</title>
<defs><marker id="a" viewBox="0 0 10 10" refX="9" refY="5" markerWidth="7" markerHeight="7" orient="auto-start-reverse"><path d="M0,0 L10,5 L0,10 z" fill="#1b1b1b"/></marker><marker id="h" viewBox="0 0 10 10" refX="9" refY="5" markerWidth="6" markerHeight="6" orient="auto-start-reverse"><path d="M0,0 L10,5 L0,10 z" fill="#d9480f"/></marker><marker id="m" viewBox="0 0 10 10" refX="9" refY="5" markerWidth="7" markerHeight="7" orient="auto-start-reverse"><path d="M0,0 L10,5 L0,10 z" fill="#5f6b76"/></marker></defs>
<rect x="0" y="0" width="760" height="400" rx="10" fill="#ffffff"/>
<text x="20.0" y="30.0" font-size="15" text-anchor="start" fill="#1b1b1b" font-weight="bold">Route 0 → 1 → 2 → 0′</text>
<text x="138.0" y="66.0" font-size="13" text-anchor="end" fill="#5f6b76" font-weight="normal">customer 1</text>
<line x1="150.0" y1="62" x2="710.0" y2="62" stroke="#e3e8ec" stroke-width="1"/>
<rect x="150.0" y="54" width="210.0" height="16" rx="3" fill="#e7f5ff" stroke="#1a6b9a" stroke-width="1.6"/>
<text x="255.0" y="67.0" font-size="11" text-anchor="middle" fill="#1a6b9a" font-weight="normal">[0, 15]</text>
<text x="138.0" y="96.0" font-size="13" text-anchor="end" fill="#5f6b76" font-weight="normal">customer 2</text>
<line x1="150.0" y1="92" x2="710.0" y2="92" stroke="#e3e8ec" stroke-width="1"/>
<rect x="430.0" y="84" width="140.0" height="16" rx="3" fill="#e7f5ff" stroke="#1a6b9a" stroke-width="1.6"/>
<text x="500.0" y="97.0" font-size="11" text-anchor="middle" fill="#1a6b9a" font-weight="normal">[20, 30]</text>
<text x="138.0" y="126.0" font-size="13" text-anchor="end" fill="#5f6b76" font-weight="normal">customer 3</text>
<line x1="150.0" y1="122" x2="710.0" y2="122" stroke="#e3e8ec" stroke-width="1"/>
<rect x="290.0" y="114" width="112.0" height="16" rx="3" fill="#e7f5ff" stroke="#1a6b9a" stroke-width="1.6"/>
<text x="346.0" y="127.0" font-size="11" text-anchor="middle" fill="#1a6b9a" font-weight="normal">[10, 18]</text>
<circle cx="290.0" cy="62" r="6" fill="#d9480f"/>
<text x="290.0" y="84.0" font-size="11" text-anchor="middle" fill="#d9480f" font-weight="bold">arrive 10</text>
<circle cx="346.0" cy="92" r="6" fill="#d9480f"/>
<text x="346.0" y="114.0" font-size="11" text-anchor="middle" fill="#d9480f" font-weight="bold">arrive 14</text>
<line x1="346.0" y1="92" x2="430.0" y2="92" stroke="#d9480f" stroke-width="3" stroke-dasharray="3 3"/>
<text x="388.0" y="80.0" font-size="11" text-anchor="middle" fill="#d9480f" font-weight="normal">wait until 20</text>
<text x="740.0" y="30.0" font-size="14" text-anchor="end" fill="#2b8a3e" font-weight="bold">✓ feasible, back at the depot at 30</text>
<text x="20.0" y="200.0" font-size="15" text-anchor="start" fill="#1b1b1b" font-weight="bold">Route 0 → 2 → 1 → 0′</text>
<text x="138.0" y="236.0" font-size="13" text-anchor="end" fill="#5f6b76" font-weight="normal">customer 1</text>
<line x1="150.0" y1="232" x2="710.0" y2="232" stroke="#e3e8ec" stroke-width="1"/>
<rect x="150.0" y="224" width="210.0" height="16" rx="3" fill="#e7f5ff" stroke="#1a6b9a" stroke-width="1.6"/>
<text x="255.0" y="237.0" font-size="11" text-anchor="middle" fill="#1a6b9a" font-weight="normal">[0, 15]</text>
<text x="138.0" y="266.0" font-size="13" text-anchor="end" fill="#5f6b76" font-weight="normal">customer 2</text>
<line x1="150.0" y1="262" x2="710.0" y2="262" stroke="#e3e8ec" stroke-width="1"/>
<rect x="430.0" y="254" width="140.0" height="16" rx="3" fill="#e7f5ff" stroke="#1a6b9a" stroke-width="1.6"/>
<text x="500.0" y="267.0" font-size="11" text-anchor="middle" fill="#1a6b9a" font-weight="normal">[20, 30]</text>
<text x="138.0" y="296.0" font-size="13" text-anchor="end" fill="#5f6b76" font-weight="normal">customer 3</text>
<line x1="150.0" y1="292" x2="710.0" y2="292" stroke="#e3e8ec" stroke-width="1"/>
<rect x="290.0" y="284" width="112.0" height="16" rx="3" fill="#e7f5ff" stroke="#1a6b9a" stroke-width="1.6"/>
<text x="346.0" y="297.0" font-size="11" text-anchor="middle" fill="#1a6b9a" font-weight="normal">[10, 18]</text>
<circle cx="290.0" cy="262" r="6" fill="#d9480f"/>
<text x="290.0" y="284.0" font-size="11" text-anchor="middle" fill="#d9480f" font-weight="bold">arrive 10</text>
<line x1="290.0" y1="262" x2="430.0" y2="262" stroke="#d9480f" stroke-width="3" stroke-dasharray="3 3"/>
<text x="360.0" y="250.0" font-size="11" text-anchor="middle" fill="#d9480f" font-weight="normal">wait until 20</text>
<circle cx="486.0" cy="232" r="6" fill="#c92a2a"/>
<text x="486.0" y="254.0" font-size="11" text-anchor="middle" fill="#c92a2a" font-weight="bold">arrive 24 > 15</text>
<text x="740.0" y="200.0" font-size="14" text-anchor="end" fill="#c92a2a" font-weight="bold">✗ infeasible at customer 1</text>
<line x1="150.0" y1="370" x2="710.0" y2="370" stroke="#1b1b1b" stroke-width="1.2"/>
<line x1="150.0" y1="370" x2="150.0" y2="375" stroke="#1b1b1b"/>
<text x="150.0" y="390.0" font-size="12" text-anchor="middle" fill="#5f6b76" font-weight="normal">0</text>
<line x1="220.0" y1="370" x2="220.0" y2="375" stroke="#1b1b1b"/>
<text x="220.0" y="390.0" font-size="12" text-anchor="middle" fill="#5f6b76" font-weight="normal">5</text>
<line x1="290.0" y1="370" x2="290.0" y2="375" stroke="#1b1b1b"/>
<text x="290.0" y="390.0" font-size="12" text-anchor="middle" fill="#5f6b76" font-weight="normal">10</text>
<line x1="360.0" y1="370" x2="360.0" y2="375" stroke="#1b1b1b"/>
<text x="360.0" y="390.0" font-size="12" text-anchor="middle" fill="#5f6b76" font-weight="normal">15</text>
<line x1="430.0" y1="370" x2="430.0" y2="375" stroke="#1b1b1b"/>
<text x="430.0" y="390.0" font-size="12" text-anchor="middle" fill="#5f6b76" font-weight="normal">20</text>
<line x1="500.0" y1="370" x2="500.0" y2="375" stroke="#1b1b1b"/>
<text x="500.0" y="390.0" font-size="12" text-anchor="middle" fill="#5f6b76" font-weight="normal">25</text>
<line x1="570.0" y1="370" x2="570.0" y2="375" stroke="#1b1b1b"/>
<text x="570.0" y="390.0" font-size="12" text-anchor="middle" fill="#5f6b76" font-weight="normal">30</text>
<line x1="640.0" y1="370" x2="640.0" y2="375" stroke="#1b1b1b"/>
<text x="640.0" y="390.0" font-size="12" text-anchor="middle" fill="#5f6b76" font-weight="normal">35</text>
<line x1="710.0" y1="370" x2="710.0" y2="375" stroke="#1b1b1b"/>
<text x="710.0" y="390.0" font-size="12" text-anchor="middle" fill="#5f6b76" font-weight="normal">40</text>
<text x="138.0" y="375.0" font-size="13" text-anchor="end" fill="#5f6b76" font-weight="normal">time</text>
</svg>
